<mxfile host="app.diagrams.net" modified="2022-11-06T05:09:41.660Z" agent="5.0 (Macintosh; Intel Mac OS X 10_15_7) AppleWebKit/537.36 (KHTML, like Gecko) Chrome/107.0.0.0 Safari/537.36" etag="Nk7lO_P5DW65AXBYaBi4" version="20.5.2" type="github">
  <diagram id="xR6at_xEWDEMLL91cnmQ" name="페이지-1">
    <mxGraphModel dx="1234" dy="708" grid="1" gridSize="10" guides="1" tooltips="1" connect="1" arrows="1" fold="1" page="1" pageScale="1" pageWidth="827" pageHeight="1169" math="0" shadow="0">
      <root>
        <mxCell id="0" />
        <mxCell id="1" parent="0" />
        <mxCell id="2P1o7dIdCDb2NtR1oQ0s-12" style="edgeStyle=orthogonalEdgeStyle;rounded=0;orthogonalLoop=1;jettySize=auto;html=1;exitX=0.5;exitY=1;exitDx=0;exitDy=0;entryX=0.5;entryY=0;entryDx=0;entryDy=0;fontFamily=Noto Sans Korean;fontSource=https%3A%2F%2Ffonts.googleapis.com%2Fcss%3Ffamily%3DNoto%2BSans%2BKorean;fontSize=13;" edge="1" parent="1" source="2P1o7dIdCDb2NtR1oQ0s-3" target="2P1o7dIdCDb2NtR1oQ0s-4">
          <mxGeometry relative="1" as="geometry" />
        </mxCell>
        <mxCell id="2P1o7dIdCDb2NtR1oQ0s-3" value="&lt;font style=&quot;font-size: 13px;&quot;&gt;시작&lt;/font&gt;" style="rounded=1;whiteSpace=wrap;html=1;fontFamily=Noto Sans Korean;fontSource=https%3A%2F%2Ffonts.googleapis.com%2Fcss%3Ffamily%3DNoto%2BSans%2BKorean;arcSize=50;fontSize=13;" vertex="1" parent="1">
          <mxGeometry x="470" y="170" width="80" height="30" as="geometry" />
        </mxCell>
        <mxCell id="2P1o7dIdCDb2NtR1oQ0s-9" style="edgeStyle=orthogonalEdgeStyle;rounded=0;orthogonalLoop=1;jettySize=auto;html=1;exitX=0.5;exitY=1;exitDx=0;exitDy=0;entryX=0.5;entryY=0;entryDx=0;entryDy=0;fontFamily=Noto Sans Korean;fontSource=https%3A%2F%2Ffonts.googleapis.com%2Fcss%3Ffamily%3DNoto%2BSans%2BKorean;fontSize=13;" edge="1" parent="1" source="2P1o7dIdCDb2NtR1oQ0s-4" target="2P1o7dIdCDb2NtR1oQ0s-5">
          <mxGeometry relative="1" as="geometry" />
        </mxCell>
        <mxCell id="2P1o7dIdCDb2NtR1oQ0s-4" value="음원 파일 확보" style="rounded=0;whiteSpace=wrap;html=1;fontFamily=Noto Sans Korean;fontSource=https%3A%2F%2Ffonts.googleapis.com%2Fcss%3Ffamily%3DNoto%2BSans%2BKorean;fontSize=13;" vertex="1" parent="1">
          <mxGeometry x="440" y="220" width="140" height="40" as="geometry" />
        </mxCell>
        <mxCell id="2P1o7dIdCDb2NtR1oQ0s-10" style="edgeStyle=orthogonalEdgeStyle;rounded=0;orthogonalLoop=1;jettySize=auto;html=1;exitX=0.5;exitY=1;exitDx=0;exitDy=0;entryX=0.5;entryY=0;entryDx=0;entryDy=0;fontFamily=Noto Sans Korean;fontSource=https%3A%2F%2Ffonts.googleapis.com%2Fcss%3Ffamily%3DNoto%2BSans%2BKorean;fontSize=13;" edge="1" parent="1" source="2P1o7dIdCDb2NtR1oQ0s-5" target="2P1o7dIdCDb2NtR1oQ0s-6">
          <mxGeometry relative="1" as="geometry" />
        </mxCell>
        <mxCell id="2P1o7dIdCDb2NtR1oQ0s-5" value="Vocal 부분 추출" style="rounded=0;whiteSpace=wrap;html=1;fontFamily=Noto Sans Korean;fontSource=https%3A%2F%2Ffonts.googleapis.com%2Fcss%3Ffamily%3DNoto%2BSans%2BKorean;fontSize=13;" vertex="1" parent="1">
          <mxGeometry x="440" y="290" width="140" height="40" as="geometry" />
        </mxCell>
        <mxCell id="2P1o7dIdCDb2NtR1oQ0s-11" style="edgeStyle=orthogonalEdgeStyle;rounded=0;orthogonalLoop=1;jettySize=auto;html=1;exitX=0.5;exitY=1;exitDx=0;exitDy=0;entryX=0.5;entryY=0;entryDx=0;entryDy=0;fontFamily=Noto Sans Korean;fontSource=https%3A%2F%2Ffonts.googleapis.com%2Fcss%3Ffamily%3DNoto%2BSans%2BKorean;fontSize=13;" edge="1" parent="1" source="2P1o7dIdCDb2NtR1oQ0s-6" target="2P1o7dIdCDb2NtR1oQ0s-7">
          <mxGeometry relative="1" as="geometry" />
        </mxCell>
        <mxCell id="2P1o7dIdCDb2NtR1oQ0s-6" value="Pitch Detection 수행" style="rounded=0;whiteSpace=wrap;html=1;fontFamily=Noto Sans Korean;fontSource=https%3A%2F%2Ffonts.googleapis.com%2Fcss%3Ffamily%3DNoto%2BSans%2BKorean;fontSize=13;" vertex="1" parent="1">
          <mxGeometry x="440" y="360" width="140" height="40" as="geometry" />
        </mxCell>
        <mxCell id="2P1o7dIdCDb2NtR1oQ0s-14" style="edgeStyle=orthogonalEdgeStyle;rounded=0;orthogonalLoop=1;jettySize=auto;html=1;exitX=0.5;exitY=1;exitDx=0;exitDy=0;entryX=0.5;entryY=0;entryDx=0;entryDy=0;fontFamily=Noto Sans Korean;fontSource=https%3A%2F%2Ffonts.googleapis.com%2Fcss%3Ffamily%3DNoto%2BSans%2BKorean;fontSize=13;" edge="1" parent="1" source="2P1o7dIdCDb2NtR1oQ0s-7" target="2P1o7dIdCDb2NtR1oQ0s-13">
          <mxGeometry relative="1" as="geometry" />
        </mxCell>
        <mxCell id="2P1o7dIdCDb2NtR1oQ0s-7" value="최고음 추출" style="rounded=0;whiteSpace=wrap;html=1;fontFamily=Noto Sans Korean;fontSource=https%3A%2F%2Ffonts.googleapis.com%2Fcss%3Ffamily%3DNoto%2BSans%2BKorean;fontSize=13;" vertex="1" parent="1">
          <mxGeometry x="440" y="430" width="140" height="40" as="geometry" />
        </mxCell>
        <mxCell id="2P1o7dIdCDb2NtR1oQ0s-13" value="&lt;font style=&quot;font-size: 13px;&quot;&gt;종료&lt;/font&gt;" style="rounded=1;whiteSpace=wrap;html=1;fontFamily=Noto Sans Korean;fontSource=https%3A%2F%2Ffonts.googleapis.com%2Fcss%3Ffamily%3DNoto%2BSans%2BKorean;arcSize=50;fontSize=13;" vertex="1" parent="1">
          <mxGeometry x="470" y="500" width="80" height="30" as="geometry" />
        </mxCell>
      </root>
    </mxGraphModel>
  </diagram>
</mxfile>
